<?xml version="1.0" encoding="UTF-8"?>
<svg id="Calque_2" data-name="Calque 2" xmlns="http://www.w3.org/2000/svg" viewBox="0 0 330.88 330.88">
  <defs>
    <style>
      .cls-1 {
        opacity: 1;
      }

      .cls-2 {
        fill: #6ec6d9;
        stroke-width: 0px;
      }
    </style>
  </defs>
  <g id="Calque_1-2" data-name="Calque 1">
    <g class="cls-1">
      <g class="cls-1">
        <path class="cls-2" d="m165.48,330.88c-73.05,0-140.07-48.82-159.83-122.67C-17.94,120.11,34.55,29.23,122.67,5.65c88.11-23.59,178.98,28.91,202.57,117.02,23.59,88.11-28.91,178.98-117.02,202.57-14.27,3.82-28.62,5.64-42.74,5.64Zm-.08-329.5c-14,0-28.23,1.81-42.38,5.6C35.65,30.37-16.41,120.48,6.98,207.86c23.39,87.37,113.5,139.43,200.88,116.04,87.37-23.39,139.43-113.5,116.04-200.88C304.3,49.8,237.84,1.38,165.4,1.38Z"/>
      </g>
      <g class="cls-1">
        <path class="cls-2" d="m165.24,288.05c-21.25,0-42.21-5.57-61.1-16.49-28.35-16.37-48.62-42.81-57.08-74.43-8.46-31.62-4.11-64.65,12.27-93,16.37-28.35,42.81-48.62,74.43-57.08,31.62-8.47,64.65-4.11,93,12.27,28.35,16.37,48.62,42.81,57.08,74.43,8.46,31.62,4.11,64.65-12.27,93-16.37,28.35-42.81,48.62-74.43,57.08-10.55,2.82-21.26,4.22-31.89,4.22Zm.4-243.83c-10.52,0-21.1,1.38-31.53,4.17-31.27,8.37-57.4,28.41-73.59,56.44-16.19,28.03-20.5,60.68-12.13,91.95,8.37,31.27,28.41,57.4,56.44,73.59,28.03,16.19,60.68,20.5,91.95,12.13,31.27-8.37,57.4-28.41,73.59-56.44,16.19-28.03,20.5-60.68,12.13-91.95-8.37-31.27-28.41-57.4-56.44-73.59-18.68-10.79-39.41-16.3-60.41-16.3Z"/>
      </g>
    </g>
  </g>
</svg>