<?xml version="1.0" encoding="UTF-8"?>
<svg id="Calque_2" data-name="Calque 2" xmlns="http://www.w3.org/2000/svg" viewBox="0 0 1832.82 268.02">
  <defs>
    <style>
      .cls-1 {
        fill: #00abc9;
        stroke-width: 0px;
      }

      .cls-2 {
        opacity: .6;
      }
    </style>
  </defs>
  <g id="Calque_1-2" data-name="Calque 1">
    <g class="cls-2">
      <path class="cls-1" d="m354.58,234.73c-43.93-1.03-87.6-4.38-130.38-10.02-50.13-6.61-97.44-17.6-143.19-28.22-26.31-6.11-53.51-12.43-81.02-17.86l.74-.74c27.57,5.45,54.8,11.77,81.13,17.89,45.66,10.6,92.88,21.57,142.82,28.16,118.97,15.69,242.49,13.57,357.21-6.14,52.67-9.05,104.42-22.53,153.81-40.07,47.85-16.99,90.87-38.11,132.48-58.54l4.56-2.24c14.35-7.04,28.56-14.46,42.31-21.63,22.21-11.59,45.18-23.57,69.34-34.3,52.54-23.34,116.05-41.09,183.67-51.33,70.72-10.71,149.35-12.51,240.39-5.51,80.34,6.18,160.02,18.24,237.08,29.9l6.45.98c50.49,7.64,92.62,13.91,136.92,19.31l-.45.79c-44.35-5.41-86.52-11.68-137.04-19.33l-6.45-.98c-156.7-23.72-318.74-48.24-476.19-24.39-67.35,10.2-130.62,27.88-182.96,51.14-24.12,10.71-47.06,22.68-69.25,34.26-13.75,7.18-27.98,14.59-42.35,21.65l-4.56,2.24c-41.65,20.45-84.72,41.59-132.69,58.62-49.54,17.59-101.45,31.11-154.3,40.19-57.09,9.81-116.93,15.31-177.87,16.34-16.76.29-33.52.23-50.24-.16Z"/>
      <path class="cls-1" d="m359.63,248.58c-43.93-1.03-87.6-4.38-130.38-10.02-50.13-6.61-97.44-17.6-143.19-28.22-26.31-6.11-53.51-12.43-81.02-17.86l.74-.74c27.57,5.45,54.8,11.77,81.13,17.89,45.66,10.6,92.88,21.57,142.82,28.16,118.97,15.69,242.49,13.57,357.21-6.14,52.67-9.05,104.42-22.53,153.81-40.07,47.85-16.99,90.87-38.11,132.48-58.54l4.56-2.24c14.35-7.04,28.56-14.46,42.31-21.63,22.21-11.59,45.18-23.57,69.34-34.3,52.54-23.34,116.05-41.09,183.67-51.33,70.72-10.71,149.35-12.51,240.39-5.51,80.34,6.18,160.02,18.24,237.08,29.9l6.45.98c50.49,7.64,92.62,13.91,136.92,19.31l-.45.79c-44.35-5.41-86.52-11.68-137.04-19.33l-6.45-.98c-156.7-23.72-318.74-48.24-476.19-24.39-67.35,10.2-130.62,27.88-182.96,51.14-24.12,10.71-47.06,22.68-69.25,34.26-13.75,7.18-27.98,14.59-42.35,21.65l-4.56,2.24c-41.65,20.45-84.72,41.59-132.69,58.62-49.54,17.59-101.45,31.11-154.3,40.19-57.09,9.81-116.93,15.31-177.87,16.34-16.76.29-33.52.23-50.24-.16Z"/>
      <path class="cls-1" d="m381.37,258.55c-43.93-1.03-87.6-4.38-130.38-10.02-50.13-6.61-97.44-17.6-143.19-28.22-26.31-6.11-53.51-12.43-81.02-17.86l.74-.74c27.57,5.45,54.8,11.77,81.13,17.89,45.66,10.6,92.88,21.57,142.82,28.16,118.97,15.69,242.49,13.57,357.21-6.14,52.67-9.05,104.42-22.53,153.81-40.07,47.85-16.99,90.87-38.11,132.48-58.54l4.56-2.24c14.35-7.04,28.56-14.46,42.31-21.63,22.21-11.59,45.18-23.57,69.34-34.3,52.54-23.34,116.05-41.09,183.67-51.33,70.72-10.71,149.35-12.51,240.39-5.51,80.34,6.18,160.02,18.24,237.08,29.9l6.45.98c50.49,7.64,92.62,13.91,136.92,19.31l-.45.79c-44.35-5.41-86.52-11.68-137.04-19.33l-6.45-.98c-156.7-23.72-318.74-48.24-476.19-24.39-67.35,10.2-130.62,27.88-182.96,51.14-24.12,10.71-47.06,22.68-69.25,34.26-13.75,7.18-27.98,14.59-42.35,21.65l-4.56,2.24c-41.65,20.45-84.72,41.59-132.69,58.62-49.54,17.59-101.45,31.11-154.3,40.19-57.09,9.81-116.93,15.31-177.87,16.34-16.76.29-33.52.23-50.24-.16Z"/>
      <path class="cls-1" d="m398.49,267.68c-43.93-1.03-87.6-4.38-130.38-10.02-50.13-6.61-97.44-17.6-143.19-28.22-26.31-6.11-53.51-12.43-81.02-17.86l.74-.74c27.57,5.45,54.8,11.77,81.13,17.89,45.66,10.6,92.88,21.57,142.82,28.16,118.97,15.69,242.49,13.57,357.21-6.14,52.67-9.05,104.42-22.53,153.81-40.07,47.85-16.99,90.87-38.11,132.48-58.54l4.56-2.24c14.35-7.04,28.56-14.46,42.31-21.63,22.21-11.59,45.18-23.57,69.34-34.3,52.54-23.34,116.05-41.09,183.67-51.33,70.72-10.71,149.35-12.51,240.39-5.51,80.34,6.18,160.02,18.24,237.08,29.9l6.45.98c50.49,7.64,92.62,13.91,136.92,19.31l-.45.79c-44.35-5.41-86.52-11.68-137.04-19.33l-6.45-.98c-156.7-23.72-318.74-48.24-476.19-24.39-67.35,10.2-130.62,27.88-182.96,51.14-24.12,10.71-47.06,22.68-69.25,34.26-13.75,7.18-27.98,14.59-42.35,21.65l-4.56,2.24c-41.65,20.45-84.72,41.59-132.69,58.62-49.54,17.59-101.45,31.11-154.3,40.19-57.09,9.81-116.93,15.31-177.87,16.34-16.76.29-33.52.23-50.24-.16Z"/>
    </g>
  </g>
</svg>